HIERARCHY
ROOT Hips
{
	OFFSET	0.00	0.00	0.00
	CHANNELS 6 Xposition Yposition Zposition Zrotation Xrotation Yrotation
	JOINT LeftUpLeg
	{
		OFFSET	 0.126116	-0.065224	 0.014019
		CHANNELS 3 Zrotation Xrotation Yrotation
		JOINT LeftLeg
		{
			OFFSET	 0.000000	 0.569914	 0.000000
			CHANNELS 3 Zrotation Xrotation Yrotation
			JOINT LeftFoot
			{
				OFFSET	 0.000000	 0.544423	 0.000000
				CHANNELS 3 Zrotation Xrotation Yrotation
				JOINT LeftToeBase
				{
					OFFSET	 0.000000	 0.207117	 0.000000
					CHANNELS 3 Zrotation Xrotation Yrotation
					End Site
					{
						OFFSET	 0.000000	 0.207117	 0.000000
					}
				}
			}
		}
	}
	JOINT RightUpLeg
	{
		OFFSET	-0.124023	-0.065224	 0.008373
		CHANNELS 3 Zrotation Xrotation Yrotation
		JOINT RightLeg
		{
			OFFSET	 0.000000	 0.570047	 0.000000
			CHANNELS 3 Zrotation Xrotation Yrotation
			JOINT RightFoot
			{
				OFFSET	 0.000000	 0.544354	 0.000000
				CHANNELS 3 Zrotation Xrotation Yrotation
				JOINT RightToeBase
				{
					OFFSET	 0.000000	 0.207540	 0.000000
					CHANNELS 3 Zrotation Xrotation Yrotation
					End Site
					{
						OFFSET	 0.000000	 0.207540	 0.000000
					}
				}
			}
		}
	}
	JOINT Spine
	{
		OFFSET	 0.000184	 0.117403	 0.007763
		CHANNELS 3 Zrotation Xrotation Yrotation
		JOINT Spine1
		{
			OFFSET	 0.000000	 0.137269	 0.000000
			CHANNELS 3 Zrotation Xrotation Yrotation
			JOINT Spine2
			{
				OFFSET	 0.000000	 0.156879	 0.000000
				CHANNELS 3 Zrotation Xrotation Yrotation
				JOINT LeftShoulder
				{
					OFFSET	 0.080501	 0.160143	 0.002496
					CHANNELS 3 Zrotation Xrotation Yrotation
					JOINT LeftArm
					{
						OFFSET	 0.000000	 0.164363	 0.000000
						CHANNELS 3 Zrotation Xrotation Yrotation
						JOINT LeftForeArm
						{
							OFFSET	 0.000000	 0.364576	 0.000000
							CHANNELS 3 Zrotation Xrotation Yrotation
							JOINT LeftHand
							{
								OFFSET	 0.000000	 0.360812	 0.000000
								CHANNELS 3 Zrotation Xrotation Yrotation
								JOINT LeftHandIndex1
								{
									OFFSET	 0.000000	 0.086006	 0.000000
									CHANNELS 3 Zrotation Xrotation Yrotation
									JOINT LeftHandIndex2
									{
										OFFSET	 0.000000	 0.047237	 0.000000
										CHANNELS 3 Zrotation Xrotation Yrotation
										JOINT LeftHandIndex3
										{
											OFFSET	-0.004284	 0.038165	 0.000551
											CHANNELS 3 Zrotation Xrotation Yrotation
											End Site
											{
												OFFSET	-0.004284	 0.038165	 0.000551
											}
										}
									}
								}
							}
						}
					}
				}
				JOINT Neck
				{
					OFFSET	 0.000000	 0.176489	 0.000000
					CHANNELS 3 Zrotation Xrotation Yrotation
					JOINT Head
					{
						OFFSET	 0.000000	 0.077941	 0.001747
						CHANNELS 3 Zrotation Xrotation Yrotation
						End Site
						{
							OFFSET	 0.000000	 0.077941	 0.001747
						}
					}
				}
				JOINT RightShoulder
				{
					OFFSET	-0.080363	 0.159706	-0.000306
					CHANNELS 3 Zrotation Xrotation Yrotation
					JOINT RightArm
					{
						OFFSET	 0.000000	 0.164196	 0.000000
						CHANNELS 3 Zrotation Xrotation Yrotation
						JOINT RightForeArm
						{
							OFFSET	 0.000000	 0.365611	 0.000000
							CHANNELS 3 Zrotation Xrotation Yrotation
							JOINT RightHand
							{
								OFFSET	 0.000000	 0.360648	 0.000000
								CHANNELS 3 Zrotation Xrotation Yrotation
								JOINT RightHandIndex1
								{
									OFFSET	 0.000000	 0.069977	 0.000000
									CHANNELS 3 Zrotation Xrotation Yrotation
									JOINT RightHandIndex2
									{
										OFFSET	 0.000000	 0.052305	 0.000000
										CHANNELS 3 Zrotation Xrotation Yrotation
										JOINT RightHandIndex3
										{
											OFFSET	 0.009002	 0.042196	 0.000782
											CHANNELS 3 Zrotation Xrotation Yrotation
											End Site
											{
												OFFSET	 0.009002	 0.042196	 0.000782
											}
										}
									}
								}
							}
						}
					}
				}
			}
		}
	}
}
MOTION
Frames:    11
Frame Time: 0.03333334
-0.044793	 1.190775	-3.264011	-3.416243	 0.870909	 179.071700	 179.769900	 28.249550	-31.293400	 5.253950	-34.638890	 0.613067	-2.405508	 70.418020	 17.032260	 1.383048	 29.605460	-2.752584	 167.006600	-2.464103	 16.264150	-7.031034	-58.437960	 0.664947	 15.130990	 52.235820	-6.158185	-3.950917	 50.604630	 7.911042	-2.895996	 8.217148	-13.895710	 2.995259	 2.139219	-2.569849	-4.274741	-2.522816	 12.323730	-121.498600	 4.851940	 92.766600	-13.727660	 50.846920	 15.001680	 7.304939	-0.254889	-1.762532	 1.390013	 9.816474	-0.547903	 4.411022	 20.381550	-1.613083	-5.864164	 24.506250	 2.712268	 5.513456	 8.648957	-0.097452	-0.138148	-5.157669	-0.559660	-2.402222	-2.041469	-1.147753	 119.191300	 0.842103	-91.255740	-23.129310	 45.021310	 7.319455	-7.225426	-0.190540	 1.742860	-20.058360	 12.276970	-29.270520	-2.775360	 26.473080	 1.502058	 16.191370	 46.221200	-12.352830	-8.528306	 24.162460	-1.239156
-0.046904	 1.203519	-3.342155	-3.111405	 1.245076	-178.339700	 178.793000	 24.494840	-28.400200	 5.560019	-36.165870	 0.610472	-7.866586	 73.602180	 20.691550	 1.351827	 29.202670	-2.738825	 166.337800	 7.490596	 18.699190	-10.537190	-67.648670	-1.734862	 12.162020	 59.692540	-5.600498	-1.569181	 31.932470	 2.853504	-2.348127	 8.320633	-13.127410	 3.069855	 1.919284	-2.885574	-4.050270	-2.264077	 11.466110	-122.033500	 5.617802	 93.182280	-4.152652	 49.841160	 8.618461	 7.390422	-0.253635	-1.840812	 2.382566	 3.796013	-3.517746	 4.480175	 20.656270	-1.714860	-5.861661	 22.778370	 2.518595	 5.387677	 5.659835	-0.145711	-0.166639	-5.052013	-0.430040	-2.749716	-1.836655	-0.912924	 119.062400	 0.597350	-91.135220	-18.219310	 45.073960	 5.288573	-7.405925	-0.193122	 1.820695	-13.465790	 12.200880	-31.008210	-2.738873	 27.213170	 1.486044	 16.318500	 46.667920	-12.541850	-8.524855	 24.895230	-1.288309
-0.048335	 1.222119	-3.406631	-2.658962	 1.148400	-176.761400	 178.084700	 19.860320	-26.700250	 4.965115	-33.143380	 1.856965	-5.305671	 74.818370	 16.882500	 1.407569	 29.919660	-2.763532	 166.497600	 12.124530	 20.558890	-9.630235	-65.796940	-0.481874	 9.899665	 66.765560	-3.900578	-1.686617	 33.161290	 3.761704	-1.761200	 8.071061	-11.867400	 3.023755	 1.635847	-3.055061	-3.705612	-2.112535	 10.465350	-121.866300	 6.023006	 93.373480	 2.244843	 48.953840	 4.969985	 7.434000	-0.250820	-1.910848	 5.730384	-3.964518	-7.904649	 4.608436	 19.828300	-1.708927	-5.862143	 22.258800	 2.460846	 5.359287	 4.991174	-0.157374	-0.172511	-4.917002	-0.283454	-2.629534	-1.858633	-0.796143	 118.879300	 0.367046	-91.020070	-10.835290	 47.350410	 0.825759	-7.468938	-0.191851	 1.890741	-11.309750	 10.256440	-32.719800	-2.665984	 27.207840	 1.449731	 16.300970	 46.606990	-12.515900	-8.524600	 24.943720	-1.291575
-0.047622	 1.228592	-3.493459	-2.447355	 0.667571	-175.468600	 178.161400	 15.955890	-25.345170	 5.033967	-33.410380	 3.417130	-4.461715	 78.713010	 14.092280	 1.455048	 30.522710	-2.785081	 164.768500	 21.429610	 24.491970	-9.170325	-64.741250	 0.700219	 4.797280	 70.374660	-0.868755	-1.739862	 33.666020	 4.042467	-1.513656	 7.659023	-10.240750	 2.908914	 2.035240	-3.332931	-3.380197	-2.436027	 9.399619	-121.724100	 6.603468	 93.654120	 11.627870	 46.830740	-0.597907	 7.621549	-0.255612	-1.977332	 6.716739	-10.097570	-10.186290	 4.673557	 19.457210	-1.708161	-5.862572	 22.010090	 2.433275	 5.345860	 4.675851	-0.162983	-0.175614	-4.852392	-0.160566	-2.458096	-1.998931	-0.863023	 118.696400	 0.090190	-90.884220	-4.100535	 49.734930	-3.357955	-7.564953	-0.191873	 1.957779	-10.032590	 7.883160	-33.694340	-2.512662	 26.432510	 1.369296	 16.066580	 45.771280	-12.165560	-8.528030	 24.226490	-1.243439
-0.046910	 1.228526	-3.564878	-2.472398	-0.136548	-174.425200	 178.047900	 12.920860	-24.078680	 4.974556	-33.193150	 4.811399	 0.072668	 81.676900	 8.179991	 1.494776	 31.021890	-2.803462	 162.140100	 28.998870	 29.389060	-8.090081	-61.553500	 2.816804	 1.911356	 73.869220	 0.277999	-1.714127	 33.472990	 3.704931	-1.574229	 7.120836	-7.996274	 2.655662	 2.406944	-3.371438	-3.062132	-2.894709	 8.247907	-121.607300	 7.361454	 94.025120	 19.457740	 43.912300	-4.373980	 7.798446	-0.259964	-2.041970	 8.520685	-15.011530	-9.900320	 4.678403	 19.526470	-1.713825	-5.862548	 22.022110	 2.434606	 5.346919	 4.700774	-0.162533	-0.175802	-4.855549	-0.059312	-2.234163	-2.258502	-1.109556	 118.511600	-0.235290	-90.726920	 0.662611	 51.190110	-6.056198	-7.676305	-0.192679	 2.023021	-8.438326	 6.387495	-33.335780	-2.284192	 24.897940	 1.251310	 15.647090	 44.168560	-11.522110	-8.532968	 22.755230	-1.145653
-0.045317	 1.226264	-3.675273	-2.487648	-1.139127	-173.160100	 177.963200	 7.007998	-22.336520	 4.515188	-30.707400	 6.399209	 12.895730	 85.027200	-6.936020	 1.543717	 31.630020	-2.826537	 161.028300	 35.383800	 33.753220	-4.731370	-47.647300	 7.303305	-1.273144	 72.000120	-0.171598	-1.684690	 33.237660	 3.294865	-1.593870	 6.453732	-5.315374	 2.408167	 3.140121	-3.525005	-2.672452	-3.590316	 6.700093	-121.471300	 8.285933	 94.475930	 29.624770	 38.000180	-8.908937	 7.948557	-0.262006	-2.120090	 10.286690	-18.381260	-9.294841	 4.684319	 19.610850	-1.720736	-5.862519	 22.036760	 2.436227	 5.348209	 4.731135	-0.161985	-0.176023	-4.859394	 0.064045	-1.959368	-2.575523	-1.443477	 118.287700	-0.632482	-90.536710	 7.942910	 52.743800	-10.582260	-7.792387	-0.192880	 2.101604	-7.384654	 4.796507	-32.652700	-2.014088	 23.027550	 1.118414	 15.183470	 42.211420	-10.781990	-8.535278	 20.962540	-1.028038
-0.043155	 1.221758	-3.762281	-2.497931	-1.978853	-172.044200	 178.038900	 2.062693	-20.786740	 4.000529	-27.760090	 7.822078	 40.366320	 86.330410	-36.357050	 1.587079	 32.162550	-2.847374	 163.702500	 34.707420	 34.576480	-2.286086	-27.945350	 10.883700	 2.619441	 69.731830	-6.669679	-1.660625	 33.031440	 2.936780	-1.567273	 5.917754	-2.864176	 2.162881	 3.400530	-3.513325	-2.313382	-4.016777	 5.200262	-121.358100	 9.096302	 94.869770	 35.099850	 33.299380	-10.011310	 8.006486	-0.260086	-2.188279	 14.799190	-20.550680	-8.319821	 4.689511	 19.684730	-1.726799	-5.862494	 22.049590	 2.437648	 5.349338	 4.757725	-0.161506	-0.176210	-4.862762	 0.172074	-1.716758	-2.855499	-1.767619	 118.092700	-0.980945	-90.371370	 13.477380	 53.343640	-13.875530	-7.874634	-0.192340	 2.169628	-5.734353	 4.440131	-31.434070	-1.784384	 21.389610	 1.011289	 14.816230	 40.494660	-10.169220	-8.534079	 19.393020	-0.926234
-0.038234	 1.209026	-3.859644	-2.412056	-2.120211	-171.610800	 179.020500	-2.920793	-19.684790	 3.905070	-27.194500	 7.132753	 26.992950	 87.329960	-25.101550	 2.008608	 37.034220	-3.067940	 169.560400	 29.770430	 30.531780	-0.408406	-5.415053	 11.378700	-1.671526	 59.478260	-6.223857	-1.711825	 33.652180	 2.908005	-1.474735	 5.640324	-0.452533	 1.972008	 3.928300	-3.468734	-1.925209	-4.479805	 3.837935	-121.265100	 9.326517	 94.975360	 38.366860	 30.216900	-12.333900	 8.081715	-0.259241	-2.253972	 16.516430	-20.015940	-6.790208	 4.798896	 19.915910	-1.779013	-5.861917	 22.430360	 2.479882	 5.371395	 5.276365	-0.152342	-0.165958	-4.929004	 0.221279	-1.576628	-2.903147	-1.800679	 118.147700	-1.226529	-90.260380	 17.570320	 53.023170	-15.702090	-7.958040	-0.191989	 2.235321	-4.995131	 3.101233	-31.403560	-1.643839	 18.535790	 0.947709	 14.297760	 37.756900	-9.252888	-8.525104	 16.666810	-0.751438
-0.031703	 1.190830	-3.952098	-2.330353	-2.088786	-171.297600	-179.649700	-7.092952	-18.494630	 4.069343	-28.163990	 6.161926	-13.082420	 87.968670	 12.774430	 2.569655	 42.692050	-3.405904	 168.426600	 35.322330	 29.796280	-0.959663	-12.557160	 10.695280	-2.174705	 64.184070	-4.917516	-1.777516	 34.422230	 2.941775	-1.369093	 5.471513	 1.915480	 1.759481	 4.087460	-3.331450	-1.517005	-4.739584	 2.410174	-121.176000	 9.447272	 95.026570	 39.772360	 28.937810	-13.886160	 8.208920	-0.261077	-2.317642	 19.195970	-19.828960	-4.910138	 4.927333	 20.174570	-1.840094	-5.861626	 22.876830	 2.529548	 5.397106	 5.882802	-0.141870	-0.153790	-5.006453	 0.259225	-1.456515	-2.910948	-1.802499	 118.249200	-1.451072	-90.159750	 20.000530	 52.282860	-16.082010	-8.056790	-0.192321	 2.299425	-3.377334	 2.243613	-31.310000	-1.524817	 15.473460	 0.898900	 13.824820	 34.840500	-8.346670	-8.506090	 13.742620	-0.565946
-0.026784	 1.178245	-4.013989	-2.287546	-2.027813	-171.010800	-178.699000	-9.901380	-17.572910	 4.152295	-28.646970	 5.318726	-35.844020	 86.631580	 34.056570	 3.144206	 47.603760	-3.794419	 166.838500	 40.162980	 29.827090	-1.732311	-21.622940	 9.854036	-1.808259	 70.751530	-3.667758	-1.835593	 35.091850	 2.972275	-1.284200	 5.372739	 4.054959	 1.405125	 4.032417	-3.015973	-1.079801	-4.853395	 1.079064	-121.098600	 9.552346	 95.070950	 40.105960	 28.739510	-14.685620	 8.324843	-0.263019	-2.372305	 22.834470	-19.746480	-2.898670	 5.039441	 20.399400	-1.893799	-5.861715	 23.265100	 2.572871	 5.419400	 6.410181	-0.132977	-0.143165	-5.073798	 0.292242	-1.351846	-2.923047	-1.824853	 118.337700	-1.646177	-90.071930	 21.260890	 51.638820	-15.706680	-8.149781	-0.192927	 2.354373	-1.214156	 1.964097	-30.772770	-1.424823	 12.811230	 0.862302	 13.470870	 32.300690	-7.606598	-8.481896	 11.200530	-0.405587
-0.019697	 1.167712	-4.085592	-1.680282	-1.367004	-169.837600	-176.807800	-17.887500	-15.903840	 3.249887	-23.156460	 3.595921	-23.695670	 75.199290	 19.605120	 4.759088	 58.016570	-4.519361	 168.626800	 39.064050	 28.239870	-1.630517	-20.727130	 10.373310	-7.121679	 64.359460	-2.341949	-1.838510	 35.125210	 2.973823	-0.744151	 5.523591	 5.598402	 1.260869	 3.772294	-3.028105	-0.579735	-4.610890	-0.545991	-121.047800	 9.368948	 94.973980	 40.397760	 28.361460	-14.815550	 8.391717	-0.262178	-2.431759	 22.847120	-16.065220	-2.164641	 5.070612	 20.593000	-1.917263	-5.862325	 23.779620	 2.630482	 5.446421	 7.051227	-0.122437	-0.125049	-5.136804	 0.295465	-1.452813	-2.313984	-1.930020	 118.617500	-2.020350	-89.904430	 24.687410	 50.371140	-17.375790	-8.243283	-0.193293	 2.413821	-2.389049	 2.422736	-28.809970	-1.470122	 10.624320	 0.881244	 13.223950	 30.284270	-7.046764	-8.458612	 9.252690	-0.282851
